<svg width="43" height="43" viewBox="0 0 43 43" fill="none" xmlns="http://www.w3.org/2000/svg">
<path fill-rule="evenodd" clip-rule="evenodd" d="M12.6096 0.128729C14.8975 0.0234053 15.6269 0 21.4549 0C27.2828 0 28.0122 0.0253557 30.2982 0.128729C32.5841 0.232103 34.1444 0.596835 35.5097 1.12541C36.9394 1.66568 38.2365 2.51022 39.3092 3.60247C40.4015 4.67326 41.244 5.96835 41.7824 7.39998C42.3129 8.76529 42.6757 10.3256 42.781 12.6077C42.8863 14.8994 42.9097 15.6289 42.9097 21.4549C42.9097 27.2828 42.8844 28.0122 42.781 30.3001C42.6776 32.5821 42.3129 34.1425 41.7824 35.5078C41.244 36.9396 40.4001 38.2369 39.3092 39.3092C38.2365 40.4015 36.9394 41.244 35.5097 41.7824C34.1444 42.3129 32.5841 42.6757 30.3021 42.781C28.0122 42.8863 27.2828 42.9097 21.4549 42.9097C15.6269 42.9097 14.8975 42.8844 12.6096 42.781C10.3276 42.6776 8.76724 42.3129 7.40193 41.7824C5.97015 41.244 4.67291 40.4 3.60052 39.3092C2.50901 38.2378 1.66434 36.9411 1.12541 35.5097C0.596835 34.1444 0.234053 32.5841 0.128729 30.3021C0.0234053 28.0103 0 27.2808 0 21.4549C0 15.6269 0.0253557 14.8975 0.128729 12.6116C0.232103 10.3256 0.596835 8.76529 1.12541 7.39998C1.66514 5.96851 2.51045 4.67192 3.60247 3.60052C4.67334 2.50925 5.96927 1.66459 7.39998 1.12541C8.76529 0.596835 10.3256 0.234053 12.6077 0.128729H12.6096ZM30.1246 3.9906C27.8621 3.88723 27.1833 3.86578 21.4549 3.86578C15.7264 3.86578 15.0477 3.88723 12.7851 3.9906C10.6923 4.08618 9.55717 4.43531 8.8004 4.72982C7.79982 5.11991 7.08401 5.58217 6.33309 6.33309C5.62126 7.02559 5.07345 7.86863 4.72982 8.8004C4.43531 9.55717 4.08618 10.6923 3.9906 12.7851C3.88723 15.0477 3.86578 15.7264 3.86578 21.4549C3.86578 27.1833 3.88723 27.8621 3.9906 30.1246C4.08618 32.2174 4.43531 33.3526 4.72982 34.1093C5.0731 35.0397 5.62117 35.8842 6.33309 36.5766C7.02549 37.2886 7.87003 37.8366 8.8004 38.1799C9.55717 38.4744 10.6923 38.8235 12.7851 38.9191C15.0477 39.0225 15.7245 39.0439 21.4549 39.0439C27.1853 39.0439 27.8621 39.0225 30.1246 38.9191C32.2174 38.8235 33.3526 38.4744 34.1093 38.1799C35.1099 37.7898 35.8257 37.3276 36.5766 36.5766C37.2886 35.8842 37.8366 35.0397 38.1799 34.1093C38.4744 33.3526 38.8235 32.2174 38.9191 30.1246C39.0225 27.8621 39.0439 27.1833 39.0439 21.4549C39.0439 15.7264 39.0225 15.0477 38.9191 12.7851C38.8235 10.6923 38.4744 9.55717 38.1799 8.8004C37.7898 7.79982 37.3276 7.08401 36.5766 6.33309C35.8841 5.62131 35.0411 5.07351 34.1093 4.72982C33.3526 4.43531 32.2174 4.08618 30.1246 3.9906V3.9906ZM18.7145 28.0688C20.2449 28.7059 21.9491 28.7919 23.5358 28.3121C25.1226 27.8323 26.4936 26.8165 27.4147 25.4381C28.3357 24.0598 28.7496 22.4045 28.5858 20.7549C28.4219 19.1052 27.6904 17.5637 26.5163 16.3935C25.7678 15.6454 24.8627 15.0727 23.8663 14.7164C22.8698 14.3601 21.8068 14.2292 20.7537 14.333C19.7006 14.4369 18.6836 14.773 17.7759 15.3171C16.8683 15.8612 16.0926 16.5997 15.5047 17.4796C14.9167 18.3594 14.5312 19.3587 14.3758 20.4054C14.2204 21.4522 14.299 22.5204 14.606 23.5331C14.9129 24.5458 15.4406 25.4779 16.1511 26.2622C16.8615 27.0465 17.737 27.6635 18.7145 28.0688ZM13.657 13.657C14.681 12.633 15.8967 11.8207 17.2347 11.2665C18.5726 10.7123 20.0067 10.427 21.4549 10.427C22.9031 10.427 24.3371 10.7123 25.675 11.2665C27.013 11.8207 28.2287 12.633 29.2527 13.657C30.2768 14.681 31.0891 15.8967 31.6433 17.2347C32.1975 18.5726 32.4827 20.0067 32.4827 21.4549C32.4827 22.9031 32.1975 24.3371 31.6433 25.675C31.0891 27.013 30.2768 28.2287 29.2527 29.2527C27.1846 31.3209 24.3796 32.4827 21.4549 32.4827C18.5301 32.4827 15.7251 31.3209 13.657 29.2527C11.5889 27.1846 10.427 24.3796 10.427 21.4549C10.427 18.5301 11.5889 15.7251 13.657 13.657V13.657ZM34.9285 12.0693C35.1823 11.83 35.3854 11.5421 35.5259 11.2228C35.6665 10.9035 35.7415 10.5592 35.7466 10.2104C35.7517 9.86161 35.6867 9.51532 35.5555 9.19206C35.4244 8.8688 35.2297 8.57514 34.9831 8.32846C34.7364 8.08179 34.4427 7.88711 34.1195 7.75597C33.7962 7.62482 33.4499 7.55987 33.1011 7.56495C32.7523 7.57004 32.408 7.64506 32.0887 7.78557C31.7694 7.92609 31.4816 8.12924 31.2422 8.383C30.7766 8.87652 30.5217 9.53205 30.5316 10.2104C30.5415 10.8888 30.8154 11.5366 31.2951 12.0164C31.7749 12.4961 32.4227 12.77 33.1011 12.7799C33.7795 12.7898 34.435 12.5349 34.9285 12.0693V12.0693Z" fill="#FAFAFA"/>
</svg>
