<svg width="43" height="43" viewBox="0 0 43 43" fill="none" xmlns="http://www.w3.org/2000/svg">
<path fill-rule="evenodd" clip-rule="evenodd" d="M5.30636e-07 3.58492C5.30636e-07 2.63414 0.377696 1.7223 1.05 1.05C1.7223 0.3777 2.63413 4.77919e-06 3.58491 4.77919e-06H39.3209C39.7921 -0.000764771 40.2588 0.0914082 40.6943 0.271246C41.1298 0.451084 41.5256 0.715056 41.8589 1.04805C42.1923 1.38104 42.4567 1.77651 42.637 2.21183C42.8173 2.64714 42.91 3.11374 42.9097 3.58492V39.3209C42.9102 39.7922 42.8178 40.2589 42.6378 40.6944C42.4577 41.13 42.1936 41.5257 41.8604 41.859C41.5273 42.1924 41.1317 42.4567 40.6962 42.637C40.2608 42.8173 39.7941 42.91 39.3229 42.9097H3.58491C3.11397 42.9097 2.64764 42.8169 2.21258 42.6367C1.77751 42.4564 1.38222 42.1921 1.04931 41.859C0.716392 41.5259 0.45237 41.1305 0.272326 40.6953C0.0922818 40.2602 -0.000255694 39.7938 5.30636e-07 39.3229V3.58492ZM16.9844 16.3603H22.7948V19.2782C23.6335 17.6008 25.779 16.0912 29.0031 16.0912C35.184 16.0912 36.6488 19.4323 36.6488 25.5625V36.918H30.3937V26.959C30.3937 23.4677 29.555 21.4978 27.4252 21.4978C24.4702 21.4978 23.2415 23.6218 23.2415 26.959V36.918H16.9844V16.3603ZM6.25702 36.6508H12.514V16.0912H6.25702V36.6488V36.6508ZM13.4093 9.38553C13.4211 9.92126 13.3258 10.454 13.1289 10.9523C12.932 11.4507 12.6376 11.9048 12.2629 12.2879C11.8882 12.6709 11.4407 12.9753 10.9468 13.1831C10.4528 13.3908 9.92237 13.4979 9.3865 13.4979C8.85064 13.4979 8.32017 13.3908 7.82624 13.1831C7.3323 12.9753 6.88484 12.6709 6.51012 12.2879C6.13541 11.9048 5.84098 11.4507 5.64411 10.9523C5.44725 10.454 5.35192 9.92126 5.36372 9.38553C5.38687 8.33396 5.82087 7.33326 6.57277 6.59774C7.32466 5.86222 8.33468 5.45035 9.3865 5.45035C10.4383 5.45035 11.4483 5.86222 12.2002 6.59774C12.9521 7.33326 13.3861 8.33396 13.4093 9.38553V9.38553Z" fill="#FAFAFA"/>
</svg>
