<svg xmlns="http://www.w3.org/2000/svg" width="210.9936" height="98.7444" viewBox="0 0 210.9936 98.7444"><defs><style>.a{fill:#e93794;}.b{fill:#fafafa;}.c{fill:#ffff37;}</style></defs><path class="a" d="M21.99,58.698H50.1674a.738.738,0,0,0,.8022-.8022V43.9572a.738.738,0,0,0-.8022-.8022H21.99L22.19,29.8181H51.3707a.7381.7381,0,0,0,.8023-.8022V15.0774a.7381.7381,0,0,0-.8023-.8023H.7307c-.5014,0-.8022.2006-.8022.8023L.33,49.2719-.0715,83.6671c0,.6017.3008.8022.8022.8022H21.3879c.5014,0,.8022-.2005.8022-.8022Zm95.9484,10.128H86.25L86.05,55.5894h27.6765a.738.738,0,0,0,.8022-.8022V40.8486a.738.738,0,0,0-.8022-.8022H86.05L86.25,29.8181h30.8855a.738.738,0,0,0,.8022-.8022V15.0774a.7381.7381,0,0,0-.8022-.8023H64.7909c-.5014,0-.8023.2006-.8023.8023L64.39,50.5756l-.4012,33.0915c0,.6017.3009.8022.8023.8022h53.147a.738.738,0,0,0,.8022-.8022V69.6283A.7381.7381,0,0,0,117.9379,68.826Z"/><path class="b" d="M178.1237,68.826h-25.17l-.2006-19.0527.2006-34.6959c0-.6017-.3009-.8023-.8023-.8023H131.4947c-.5014,0-.8022.2006-.8022.8023l.3008,36.1-.3008,32.49c0,.6017.3008.8022.8022.8022h46.629a.738.738,0,0,0,.8022-.8022V69.6283A.7381.7381,0,0,0,178.1237,68.826Z"/><path class="c" d="M210.1914,65.8177H190.6373a.738.738,0,0,0-.8022.8022V83.6671a.738.738,0,0,0,.8022.8022h19.5541a.738.738,0,0,0,.8022-.8022V66.62A.738.738,0,0,0,210.1914,65.8177Z"/></svg>