<svg xmlns="http://www.w3.org/2000/svg" width="268.2523" height="152.2433" viewBox="0 0 268.2523 152.2433"><defs><style>.a{fill:#e93794;}.b{fill:#fafafa;}.c{fill:#ffff37;}</style></defs><path class="a" d="M9.3215,32.6437H21.0683a.3076.3076,0,0,0,.3344-.3344V26.4986a.3076.3076,0,0,0-.3344-.3344H9.3215l.0836-5.56H21.57a.3077.3077,0,0,0,.3344-.3345V14.4592a.3076.3076,0,0,0-.3344-.3344H.4591c-.209,0-.3344.0836-.3344.3344l.1672,14.255L.1247,43.0528c0,.2508.1254.3344.3344.3344H9.0706c.2091,0,.3345-.0836.3345-.3344ZM38.3679,44.14C46.854,44.14,51.16,40.252,51.16,32.7273V26.0806l.0836-11.6214c0-.2508-.1254-.3344-.3345-.3344H43.0081c-.2091,0-.3345.0836-.3345.3344l.0836,11.58v6.605c0,3.3025-1.4631,4.473-4.3893,4.473-2.4665,0-3.8042-1.1705-3.8042-4.473V25.83l.1254-11.37c0-.2508-.1254-.3344-.3344-.3344H25.4923c-.209,0-.3344.0836-.3344.3344l.0836,11.6214v6.6467C25.2415,40.252,29.9235,44.14,38.3679,44.14ZM71.77,28.5888l.1254-7.9844h7.7336a.3078.3078,0,0,0,.3345-.3345V14.4592a.3077.3077,0,0,0-.3345-.3344H54.839a.3076.3076,0,0,0-.3344.3344V20.27a.3077.3077,0,0,0,.3344.3345h7.7337l.1254,7.9844-.2509,14.464c0,.2508.1255.3344.3345.3344h8.9041c.2091,0,.3345-.0836.3345-.3344ZM96.4357,44.14c8.4861,0,12.7919-3.8877,12.7919-11.4124V26.0806l.0836-11.6214c0-.2508-.1254-.3344-.3345-.3344h-7.9008c-.2091,0-.3345.0836-.3345.3344l.0836,11.58v6.605c0,3.3025-1.4631,4.473-4.3893,4.473-2.4664,0-3.8042-1.1705-3.8042-4.473V25.83l.1254-11.37c0-.2508-.1254-.3344-.3344-.3344H83.56c-.2091,0-.3345.0836-.3345.3344l.0836,11.6214v6.6467C83.3093,40.252,87.9913,44.14,96.4357,44.14Zm37.3311-11.6214c3.8877-1.5885,5.9779-4.5984,5.9779-8.57,0-6.5213-4.5148-9.8238-12.75-9.8238H113.4921c-.2091,0-.3345.0836-.3345.3344l.0836,14.7566-.0836,13.837c0,.2508.1254.3344.3345.3344h8.6115c.209,0,.3344-.0836.3344-.3344l-.0418-9.364h1.8812l1.0869,1.5467,4.7656,7.9427a.439.439,0,0,0,.3762.209h9.9075a.2648.2648,0,0,0,.2508-.418Zm-6.605-12.0394c2.3828,0,3.6787,1.0869,3.6787,3.6787a3.1856,3.1856,0,0,1-3.4279,3.1771h-5.0582l.0418-6.8558Zm38.7041,16.387h-13.21l-.0836-5.5181H164.11a.3076.3076,0,0,0,.3344-.3344V25.2027a.3077.3077,0,0,0-.3344-.3345H152.5723l.0836-4.2638h12.8755a.3077.3077,0,0,0,.3345-.3345V14.4592a.3077.3077,0,0,0-.3345-.3344H143.71c-.2091,0-.3345.0836-.3345.3344l.1672,14.7984-.1672,13.7952c0,.2508.1254.3344.3345.3344h22.1559a.3076.3076,0,0,0,.3344-.3344V37.2A.3076.3076,0,0,0,165.8659,36.8659Z"/><path class="a" d="M22.615,81.0845H9.4051l-.0836-5.5181H20.8593a.3076.3076,0,0,0,.3344-.3344V69.4213a.3076.3076,0,0,0-.3344-.3344H9.3215l.0836-4.264H22.2806a.3076.3076,0,0,0,.3344-.3344V58.6778a.3077.3077,0,0,0-.3344-.3345H.4591c-.209,0-.3344.0837-.3344.3345L.2919,73.4762.1247,87.2714c0,.2509.1254.3345.3344.3345H22.615a.3077.3077,0,0,0,.3345-.3345V81.4189A.3077.3077,0,0,0,22.615,81.0845ZM39.8,79.3288l4.5148,8.0262a.4017.4017,0,0,0,.3763.2509h9.6566c.2508,0,.3344-.2091.209-.4181l-9.155-14.7566,8.737-13.67c.1254-.209.0418-.4181-.2091-.4181H44.5234a.4805.4805,0,0,0-.3762.2509l-4.0131,6.9812-4.055-6.9812a.4805.4805,0,0,0-.3762-.2509H26.0462c-.2508,0-.3344.2091-.209.4181l8.6534,14.0042L25.4192,87.1878c-.1254.209-.0418.4181.209.4181H35.034a.4019.4019,0,0,0,.3763-.2509ZM57.376,58.6778l.1672,14.673L57.376,87.2714c0,.2509.1254.3345.3344.3345h8.6951c.209,0,.3345-.0836.3345-.3345l-.0418-8.6951h3.386c7.9845,0,12.3739-4.0968,12.3739-10.2837,0-6.605-4.2222-9.9493-12.2484-9.9493H57.71C57.5014,58.3433,57.376,58.427,57.376,58.6778Zm9.3222,6.02h2.6336c2.6336,0,4.2221,1.17,4.2221,3.7623,0,2.6754-1.63,3.7205-4.0549,3.7205H66.6563Zm41.3448,16.387H94.833l-.0836-5.5181h11.5378a.3076.3076,0,0,0,.3344-.3344V69.4213a.3076.3076,0,0,0-.3344-.3344H94.7494l.0836-4.264h12.8755a.3077.3077,0,0,0,.3345-.3344V58.6778a.3078.3078,0,0,0-.3345-.3345H85.887c-.209,0-.3344.0837-.3344.3345L85.72,73.4762l-.1672,13.7952c0,.2509.1254.3345.3344.3345h22.156a.3077.3077,0,0,0,.3344-.3345V81.4189A.3076.3076,0,0,0,108.043,81.0845Zm24.2542-4.3476c3.8878-1.5885,5.9779-4.5984,5.9779-8.57,0-6.5214-4.5147-9.8239-12.75-9.8239H112.0225c-.209,0-.3345.0837-.3345.3345l.0837,14.7566-.0837,13.837c0,.2509.1255.3345.3345.3345h8.6115c.209,0,.3345-.0836.3345-.3345l-.0419-9.364h1.8812l1.0869,1.5468,4.7656,7.9426a.4389.4389,0,0,0,.3763.2091h9.9074a.2648.2648,0,0,0,.2508-.4181Zm-6.6049-12.0394c2.3828,0,3.6787,1.0869,3.6787,3.6787a3.1857,3.1857,0,0,1-3.4279,3.1771h-5.0583l.0418-6.8558Zm25.4939,8.57.1254-14.5894c0-.2508-.1254-.3345-.3344-.3345h-8.528c-.209,0-.3344.0837-.3344.3345l.1254,14.5894-.1254,14.0042c0,.2509.1254.3345.3344.3345h8.528c.209,0,.3344-.0836.3344-.3345Zm26.69,7.8173h-13.21l-.0836-5.5181h11.5379a.3077.3077,0,0,0,.3345-.3344V69.4213a.3077.3077,0,0,0-.3345-.3344H164.5827l.0836-4.264H177.542a.3076.3076,0,0,0,.3344-.3344V58.6778a.3077.3077,0,0,0-.3344-.3345H155.72c-.209,0-.3344.0837-.3344.3345l.1672,14.7984-.1672,13.7952c0,.2509.1254.3345.3344.3345h22.1561a.3077.3077,0,0,0,.3344-.3345V81.4189A.3076.3076,0,0,0,177.8764,81.0845Zm11.8809-6.8558-.1672-2.4246L198.118,87.355a.4017.4017,0,0,0,.3763.2509h9.74c.209,0,.3344-.0836.3344-.3345l-.1254-14.046.0836-14.5476c0-.2508-.1254-.3345-.3344-.3345H200.71c-.2091,0-.3345.0837-.3345.3345l-.0418,13.5861.1672,2.0484L191.68,58.5942a.4018.4018,0,0,0-.3763-.2509h-9.4476c-.209,0-.3344.0837-.3344.3345l.0836,14.5476-.0836,14.046c0,.2509.1254.3345.3344.3345h7.5247c.209,0,.3344-.0836.3344-.3345Zm37.9751,14.13c7.6082,0,12.7083-3.5951,14.255-10.9107.0418-.2508-.0836-.3762-.2926-.3762h-8.5279c-.2091,0-.2927.0836-.3345.2926a4.7066,4.7066,0,0,1-5.1,4.2221c-4.0132,0-6.1033-3.1352-6.1033-8.7369,0-5.4345,2.09-8.4861,5.8943-8.4861,2.9262,0,4.5984,1.4213,5.2672,4.3475a.3183.3183,0,0,0,.3344.2927h8.3608c.209,0,.3344-.1254.2926-.3763-1.5049-7.3992-6.5632-11.0361-14.13-11.0361-9.4058,0-15.6346,6.2287-15.6346,15.5509C212.0142,81.837,218.243,88.3583,227.7324,88.3583Zm40.1854-7.2738h-13.21l-.0836-5.5181h11.5378a.3076.3076,0,0,0,.3344-.3344V69.4213a.3076.3076,0,0,0-.3344-.3344H254.6243l.0836-4.264h12.8755a.3076.3076,0,0,0,.3344-.3344V58.6778a.3077.3077,0,0,0-.3344-.3345H245.7619c-.209,0-.3344.0837-.3344.3345l.1672,14.7984-.1672,13.7952c0,.2509.1254.3345.3344.3345h22.1559a.3077.3077,0,0,0,.3345-.3345V81.4189A.3077.3077,0,0,0,267.9178,81.0845Z"/><path class="b" d="M19.8978,131.5972H9.4051l-.0836-7.9427.0836-14.464c0-.2509-.1254-.3345-.3345-.3345H.4591c-.209,0-.3344.0836-.3344.3345L.25,124.24.1247,137.7841c0,.2508.1254.3344.3344.3344H19.8978a.3076.3076,0,0,0,.3344-.3344v-5.8525A.3076.3076,0,0,0,19.8978,131.5972ZM44.7056,108.856H32.8334a.4015.4015,0,0,0-.3762.2927l-9.6567,28.5936a.2781.2781,0,0,0,.2927.3762H31.83a.4016.4016,0,0,0,.3763-.2926l1.5885-5.7271h9.4476l1.6721,5.7271a.4017.4017,0,0,0,.3763.2926H54.07a.2781.2781,0,0,0,.2927-.3762l-9.28-28.5936A.4016.4016,0,0,0,44.7056,108.856Zm-3.5533,16.22H35.7179l2.6336-9.573Zm30.5722,13.0427c5.6017,0,11.58-2.55,11.58-8.3189a6.823,6.823,0,0,0-5.7689-7.1484c3.0517-1.1705,4.64-2.968,4.64-6.3541,0-5.5181-4.64-7.4411-10.7853-7.4411H57.3023c-.209,0-.3345.0836-.3345.3345l.1673,14.7566-.1673,13.837c0,.2508.1255.3344.3345.3344ZM70.7212,115.21c1.714,0,2.6755.8778,2.6755,2.4246s-.9615,2.4246-2.6755,2.4246H66.1646l.0836-4.8492Zm0,10.8689c2.341,0,3.2607.7943,3.2607,2.759,0,2.09-.92,2.9263-3.2607,2.9263h-4.473l-.0836-5.6853Z"/><path class="c" d="M94.6423,130.3431H86.4906a.3076.3076,0,0,0-.3344.3344v7.1066a.3076.3076,0,0,0,.3344.3344h8.1517a.3076.3076,0,0,0,.3344-.3344v-7.1066A.3076.3076,0,0,0,94.6423,130.3431Z"/></svg>