<svg width="36" height="34" viewBox="0 0 36 34" fill="none" xmlns="http://www.w3.org/2000/svg">
<path d="M15.4933 25.5C18.0819 25.4995 20.5958 24.6577 22.6348 23.1087L29.0456 29.3363L31.1077 27.3332L24.6969 21.1055C26.2923 19.1245 27.1594 16.6819 27.16 14.1667C27.16 7.91776 21.9261 2.83334 15.4933 2.83334C9.06063 2.83334 3.82668 7.91776 3.82668 14.1667C3.82668 20.4156 9.06063 25.5 15.4933 25.5ZM15.4933 5.66668C20.319 5.66668 24.2433 9.47893 24.2433 14.1667C24.2433 18.8544 20.319 22.6667 15.4933 22.6667C10.6677 22.6667 6.74334 18.8544 6.74334 14.1667C6.74334 9.47893 10.6677 5.66668 15.4933 5.66668Z" fill="#FFFF37"/>
</svg>
