<svg width="36" height="34" viewBox="0 0 36 34" fill="none" xmlns="http://www.w3.org/2000/svg">
<path d="M15.2601 25.5C17.8486 25.4995 20.3625 24.6577 22.4015 23.1086L28.8123 29.3363L30.8744 27.3331L24.4636 21.1055C26.059 19.1245 26.9261 16.6818 26.9267 14.1666C26.9267 7.91773 21.6928 2.83331 15.2601 2.83331C8.82734 2.83331 3.59338 7.91773 3.59338 14.1666C3.59338 20.4156 8.82734 25.5 15.2601 25.5ZM15.2601 5.66665C20.0857 5.66665 24.0101 9.4789 24.0101 14.1666C24.0101 18.8544 20.0857 22.6666 15.2601 22.6666C10.4344 22.6666 6.51005 18.8544 6.51005 14.1666C6.51005 9.4789 10.4344 5.66665 15.2601 5.66665Z" fill="#FAFAFA"/>
</svg>
