<svg width="43" height="35" viewBox="0 0 43 35" fill="none" xmlns="http://www.w3.org/2000/svg">
<path d="M42.9097 4.13774C41.3317 4.83697 39.6366 5.30942 37.8545 5.52297C39.6933 4.42271 41.069 2.69104 41.7248 0.65107C39.9973 1.67721 38.1065 2.3995 36.1348 2.78654C34.8089 1.37083 33.0527 0.43247 31.1388 0.117153C29.2249 -0.198164 27.2605 0.127202 25.5505 1.04274C23.8405 1.95827 22.4806 3.41275 21.6819 5.18035C20.8833 6.94796 20.6905 8.9298 21.1336 10.8182C17.6331 10.6424 14.2087 9.73258 11.0826 8.14771C7.95646 6.56285 5.19853 4.33837 2.98777 1.61865C2.23185 2.92261 1.7972 4.43444 1.7972 6.04455C1.79635 7.49402 2.1533 8.92128 2.83636 10.1997C3.51941 11.4781 4.50747 12.5682 5.71286 13.3732C4.31493 13.3287 2.94784 12.951 1.72538 12.2714V12.3848C1.72524 14.4177 2.42845 16.3881 3.71569 17.9616C5.00292 19.5351 6.7949 20.6148 8.78756 21.0174C7.49075 21.3684 6.13114 21.4201 4.81142 21.1686C5.37363 22.9178 6.46877 24.4474 7.94351 25.5433C9.41825 26.6392 11.1988 27.2465 13.0358 27.2802C9.91734 29.7283 6.06603 31.0562 2.10145 31.0503C1.39917 31.0505 0.697479 31.0095 0 30.9275C4.02428 33.515 8.70883 34.8882 13.4931 34.8828C29.6887 34.8828 38.5424 21.4691 38.5424 9.83548C38.5424 9.45752 38.533 9.07578 38.516 8.69782C40.2381 7.4524 41.7247 5.91018 42.9059 4.14341L42.9097 4.13774V4.13774Z" fill="#FAFAFA"/>
</svg>
